<svg width="600" height="600" viewBox="0 0 600 600" fill="none" xmlns="http://www.w3.org/2000/svg">
<path d="M124.145 507.164L37.5784 593.776C33.3963 597.815 27.7951 600.05 21.9812 599.999C16.1673 599.949 10.6059 597.617 6.49464 593.505C2.38343 589.394 0.0514076 583.833 0.00088621 578.019C-0.0496352 572.205 2.18537 566.604 6.22451 562.422L92.8357 475.811C44.3439 419.212 19.6586 346.032 23.9597 271.625C28.2608 197.219 61.2138 127.37 115.904 76.7363C170.594 26.1023 242.771 -1.38094 317.287 0.0534506C391.804 1.48784 462.869 31.7284 515.57 84.4296C568.272 137.131 598.512 208.196 599.947 282.713C601.381 357.229 573.898 429.406 523.264 484.096C472.63 538.786 402.781 571.739 328.375 576.04C253.968 580.341 180.788 555.656 124.189 507.164H124.145ZM67.8235 288.264C67.8235 352.954 93.5214 414.994 139.264 460.736C185.006 506.479 247.046 532.177 311.736 532.177C376.426 532.177 438.466 506.479 484.208 460.736C529.951 414.994 555.649 352.954 555.649 288.264C555.649 223.574 529.951 161.534 484.208 115.792C438.466 70.0492 376.426 44.3513 311.736 44.3513C247.046 44.3513 185.006 70.0492 139.264 115.792C93.5214 161.534 67.8235 223.574 67.8235 288.264Z" fill="black"/>
</svg>
