<svg width="1024" height="1024" viewBox="0 0 1024 1024" fill="none" xmlns="http://www.w3.org/2000/svg">
<g clip-path="url(#clip0_2_635)">
<rect width="1024" height="1024" rx="200" fill="#202124"/>
<path d="M338.627 719.459L262.881 795.533C259.222 799.081 254.321 801.044 249.234 800.999C244.146 800.955 239.28 798.907 235.683 795.296C232.086 791.685 230.045 786.8 230.001 781.693C229.957 776.587 231.912 771.667 235.446 767.994L311.231 691.92C268.801 642.208 247.201 577.931 250.965 512.578C254.728 447.224 283.562 385.874 331.416 341.4C379.27 296.927 442.424 272.787 507.626 274.047C572.829 275.307 635.011 301.868 681.124 348.157C727.238 394.446 753.698 456.865 754.953 522.316C756.208 587.767 732.16 651.161 687.856 699.198C643.551 747.234 582.434 776.178 517.328 779.955C452.222 783.733 388.189 762.051 338.666 719.459H338.627ZM289.346 527.192C289.346 584.011 311.831 638.503 351.856 678.68C391.881 718.857 446.166 741.428 502.769 741.428C559.373 741.428 613.658 718.857 653.682 678.68C693.707 638.503 716.193 584.011 716.193 527.192C716.193 470.373 693.707 415.881 653.682 375.704C613.658 335.527 559.373 312.955 502.769 312.955C446.166 312.955 391.881 335.527 351.856 375.704C311.831 415.881 289.346 470.373 289.346 527.192Z" fill="#FFFEFE"/>
<g clip-path="url(#clip1_2_635)">
<path d="M780.334 301.351C794.816 301.211 809.155 295.211 819.466 285.022C831.711 272.921 838.018 255.015 835.819 237.922C832.048 208.628 807.968 188.75 779.972 188.75C758.702 188.75 738.029 202.056 728.961 221.35C722.019 236.122 722.007 253.954 728.961 268.752C737.964 287.909 758.298 301.145 779.61 301.351C779.851 301.351 780.092 301.351 780.334 301.351ZM779.67 291.967C758.037 291.758 737.854 275.03 733.842 253.582C731.013 238.46 736.353 222.097 747.478 211.359C760.469 198.82 780.885 194.618 797.859 201.726C813.049 208.087 824.416 222.852 826.511 239.12C828.307 253.064 823.303 267.678 813.469 277.745C804.845 286.574 792.748 291.847 780.273 291.967C780.072 291.968 779.871 291.968 779.67 291.967Z" fill="#1793A3"/>
<path d="M779.979 284.751C801.934 284.751 819.732 266.954 819.732 244.999C819.732 223.044 801.934 205.246 779.979 205.246C758.025 205.246 740.227 223.044 740.227 244.999C740.227 266.954 758.025 284.751 779.979 284.751Z" fill="#1793A3"/>
</g>
</g>
<defs>
<clipPath id="clip0_2_635">
<rect width="1024" height="1024" rx="200" fill="white"/>
</clipPath>
<clipPath id="clip1_2_635">
<rect width="150" height="150" fill="white" transform="translate(705 170)"/>
</clipPath>
</defs>
</svg>
