<svg width="290" height="290" viewBox="0 0 290 290" fill="none" xmlns="http://www.w3.org/2000/svg">
<path d="M49.2978 253.053L14.9223 287.523C13.2616 289.13 11.0374 290.02 8.72868 290C6.41999 289.98 4.21154 289.052 2.57899 287.415C0.946432 285.779 0.0203917 283.566 0.000329705 281.252C-0.0197322 278.938 0.867782 276.709 2.47172 275.044L36.8649 240.575C17.6089 218.049 7.80639 188.925 9.51433 159.312C11.2223 129.699 24.3079 101.9 46.0253 81.7489C67.7427 61.5973 96.4037 50.6594 125.994 51.2303C155.585 51.8011 183.805 63.8364 204.732 84.8107C225.66 105.785 237.668 134.068 238.238 163.724C238.807 193.381 227.894 222.106 207.787 243.872C187.68 265.638 159.944 278.753 130.397 280.465C100.85 282.176 71.7905 272.352 49.3154 253.053H49.2978ZM26.9326 165.934C26.9326 191.679 37.1371 216.37 55.3014 234.575C73.4657 252.78 98.1017 263.007 123.79 263.007C149.478 263.007 174.114 252.78 192.278 234.575C210.442 216.37 220.647 191.679 220.647 165.934C220.647 140.188 210.442 115.497 192.278 97.2924C174.114 79.0875 149.478 68.8602 123.79 68.8602C98.1017 68.8602 73.4657 79.0875 55.3014 97.2924C37.1371 115.497 26.9326 140.188 26.9326 165.934Z" fill="white"/>
<path d="M264.134 51.9974C270.834 51.9329 277.466 49.1624 282.236 44.4572C287.9 38.8689 290.818 30.6001 289.8 22.7068C288.056 9.17915 276.917 0 263.967 0C254.129 0 244.565 6.14431 240.371 15.0542C237.16 21.8754 237.155 30.1103 240.371 36.9438C244.536 45.7905 253.942 51.9025 263.8 51.9974C263.911 51.9977 264.023 51.9977 264.134 51.9974ZM263.828 47.6641C253.821 47.5678 244.485 39.8428 242.629 29.9385C241.32 22.9555 243.791 15.399 248.937 10.4402C254.946 4.64981 264.389 2.70974 272.241 5.99211C279.268 8.92935 284.526 15.7476 285.495 23.2602C286.325 29.6993 284.011 36.4477 279.462 41.0965C275.472 45.1736 269.877 47.6086 264.107 47.6641C264.014 47.6645 263.921 47.6645 263.828 47.6641Z" fill="#1793A3"/>
<path d="M263.971 44.3322C274.126 44.3322 282.359 36.1134 282.359 25.9749C282.359 15.8365 274.126 7.61768 263.971 7.61768C253.815 7.61768 245.582 15.8365 245.582 25.9749C245.582 36.1134 253.815 44.3322 263.971 44.3322Z" fill="#1793A3"/>
</svg>
