<svg width="580" height="580" viewBox="0 0 580 580" fill="none" xmlns="http://www.w3.org/2000/svg">
<path d="M98.5956 506.106L29.8446 575.046C26.5232 578.261 22.0748 580.04 17.4574 580C12.84 579.959 8.42309 578.103 5.15798 574.831C1.89286 571.558 0.0407833 567.132 0.000659409 562.504C-0.0394645 557.876 1.73556 553.418 4.94344 550.089L73.7297 481.149C35.2178 436.098 15.6128 377.849 19.0287 318.624C22.4445 259.398 48.6157 203.801 92.0506 163.498C135.485 123.195 192.807 101.319 251.988 102.461C311.17 103.602 367.609 127.673 409.464 169.621C451.319 211.57 475.336 268.136 476.475 327.449C477.615 386.762 455.787 444.212 415.574 487.744C375.361 531.276 319.887 557.506 260.794 560.929C201.701 564.353 143.581 544.704 98.6308 506.106H98.5956ZM53.8652 331.868C53.8652 383.359 74.2743 432.741 110.603 469.15C146.931 505.56 196.203 526.015 247.58 526.015C298.956 526.015 348.228 505.56 384.556 469.15C420.885 432.741 441.294 383.359 441.294 331.868C441.294 280.376 420.885 230.994 384.556 194.585C348.228 158.175 298.956 137.72 247.58 137.72C196.203 137.72 146.931 158.175 110.603 194.585C74.2743 230.994 53.8652 280.376 53.8652 331.868Z" fill="white"/>
<path d="M528.269 103.995C541.667 103.866 554.933 98.3249 564.472 88.9143C575.8 77.7378 581.635 61.2003 579.6 45.4137C576.112 18.3583 553.835 0 527.934 0C508.257 0 489.131 12.2886 480.742 30.1083C474.32 43.7508 474.309 60.2205 480.742 73.8876C489.071 91.5809 507.883 103.805 527.6 103.995C527.823 103.995 528.046 103.995 528.269 103.995ZM527.655 95.3283C507.642 95.1357 488.97 79.6855 485.257 59.8769C482.64 45.9109 487.581 30.7979 497.873 20.8804C509.892 9.29962 528.779 5.41948 544.483 11.9842C558.535 17.8587 569.052 31.4952 570.99 46.5204C572.651 59.3985 568.021 72.8955 558.924 82.1929C550.945 90.3473 539.754 95.2171 528.213 95.3283C528.027 95.3289 527.841 95.3289 527.655 95.3283Z" fill="#1793A3"/>
<path d="M527.941 88.6644C548.252 88.6644 564.718 72.2268 564.718 51.9499C564.718 31.673 548.252 15.2354 527.941 15.2354C507.63 15.2354 491.164 31.673 491.164 51.9499C491.164 72.2268 507.63 88.6644 527.941 88.6644Z" fill="#1793A3"/>
</svg>
