<svg width="100" height="100" viewBox="0 0 100 100" fill="none" xmlns="http://www.w3.org/2000/svg">
<g clip-path="url(#clip0_2002_6262)">
<path d="M16.9992 87.2596L5.14562 99.1458C4.57297 99.7 3.806 100.007 3.00989 100C2.21379 99.9931 1.45226 99.6731 0.889308 99.1086C0.326357 98.5445 0.00703271 97.7814 0.000114779 96.9834C-0.00680312 96.1855 0.299236 95.4169 0.852318 94.8427L12.712 82.9569C6.07204 75.1893 2.69186 65.1465 3.2808 54.9351C3.86976 44.7238 8.38204 35.1379 15.8708 28.1893C23.3596 21.2404 33.2427 17.4687 43.4462 17.6656C53.65 17.8624 63.381 22.0125 70.5972 29.245C77.8138 36.4776 81.9545 46.2303 82.151 56.4565C82.3472 66.6831 78.5841 76.5882 71.6507 84.0938C64.7172 91.5993 55.1531 96.1217 44.9645 96.712C34.7759 97.302 24.7553 93.9145 17.0053 87.2596H16.9992ZM9.2871 57.2186C9.2871 66.0962 12.8059 74.6103 19.0694 80.8879C25.333 87.1655 33.8282 90.692 42.6862 90.692C51.5441 90.692 60.0393 87.1655 66.3028 80.8879C72.5662 74.6103 76.0852 66.0962 76.0852 57.2186C76.0852 48.3407 72.5662 39.8265 66.3028 33.5491C60.0393 27.2715 51.5441 23.7449 42.6862 23.7449C33.8282 23.7449 25.333 27.2715 19.0694 33.5491C12.8059 39.8265 9.2871 48.3407 9.2871 57.2186Z" fill="white" style="fill:white;fill-opacity:1;"/>
<path d="M91.0809 17.9301C93.3912 17.9079 95.6781 16.9526 97.3229 15.3301C99.276 13.4031 100.282 10.5518 99.9312 7.82993C99.3298 3.16522 95.4888 0 91.0233 0C87.6309 0 84.3329 2.11873 82.8867 5.1911C81.7795 7.54324 81.7778 10.3829 82.8867 12.7392C84.3229 15.7898 87.5664 17.8974 90.9657 17.9301C91.004 17.9302 91.0426 17.9302 91.0809 17.9301ZM90.9754 16.4359C87.5247 16.4027 84.3054 13.7389 83.6654 10.3236C83.214 7.91569 84.0661 5.31 85.8405 3.60007C87.9126 1.60338 91.1688 0.934393 93.8764 2.06624C96.2995 3.07909 98.1126 5.43021 98.4467 8.02076C98.7329 10.2411 97.935 12.5682 96.3664 14.1712C94.9905 15.5771 93.0612 16.4168 91.0716 16.4359C91.0395 16.436 91.0074 16.436 90.9754 16.4359Z" fill="#1793A3" style="fill:#1793A3;fill:color(display-p3 0.0902 0.5765 0.6392);fill-opacity:1;"/>
<path d="M91.0246 15.2869C94.5264 15.2869 97.3653 12.4529 97.3653 8.95685C97.3653 5.46085 94.5264 2.62677 91.0246 2.62677C87.5226 2.62677 84.6836 5.46085 84.6836 8.95685C84.6836 12.4529 87.5226 15.2869 91.0246 15.2869Z" fill="#1793A3" style="fill:#1793A3;fill:color(display-p3 0.0902 0.5765 0.6392);fill-opacity:1;"/>
</g>
<defs>
<clipPath id="clip0_2002_6262">
<rect width="100" height="100" fill="white" style="fill:white;fill-opacity:1;"/>
</clipPath>
</defs>
</svg>
