<svg width="870" height="870" viewBox="0 0 870 870" fill="none" xmlns="http://www.w3.org/2000/svg">
<path d="M147.893 759.158L44.7668 862.568C39.7848 867.391 33.1121 870.059 26.186 869.999C19.2599 869.939 12.6346 867.154 7.73695 862.246C2.83928 857.337 0.0611561 850.697 0.000970265 843.755C-0.0592156 836.814 2.60333 830.126 7.41514 825.133L110.595 721.723C52.8266 654.147 23.4192 566.773 28.543 477.935C33.6668 389.097 72.9236 305.701 138.076 245.247C203.228 184.792 289.211 151.978 377.983 153.691C466.754 155.403 551.414 191.509 614.196 254.432C676.979 317.355 713.004 402.203 714.713 491.173C716.422 580.143 683.681 666.318 623.361 731.616C563.041 796.914 479.831 836.258 391.191 841.393C302.551 846.529 215.371 817.055 147.946 759.158H147.893ZM80.7977 497.801C80.7977 575.038 111.411 649.111 165.904 703.725C220.397 758.34 294.305 789.022 371.369 789.022C448.434 789.022 522.342 758.34 576.835 703.725C631.327 649.111 661.941 575.038 661.941 497.801C661.941 420.565 631.327 346.491 576.835 291.877C522.342 237.263 448.434 206.58 371.369 206.58C294.305 206.58 220.397 237.263 165.904 291.877C111.411 346.491 80.7977 420.565 80.7977 497.801Z" fill="white"/>
<path d="M792.403 155.992C812.501 155.799 832.399 147.487 846.707 133.371C863.7 116.607 872.453 91.8004 869.4 68.1205C864.168 27.5374 830.752 0 791.901 0C762.385 0 733.696 18.4329 721.114 45.1625C711.48 65.6262 711.463 90.3308 721.114 110.831C733.607 137.371 761.825 155.707 791.399 155.992C791.734 155.993 792.069 155.993 792.403 155.992ZM791.483 142.992C761.463 142.703 733.455 119.528 727.886 89.8154C723.96 68.8664 731.372 46.1969 746.81 31.3206C764.837 13.9494 793.168 8.12922 816.724 17.9763C837.802 26.788 853.577 47.2427 856.484 69.7806C858.976 89.0978 852.032 109.343 838.386 123.289C826.417 135.521 809.631 142.826 792.319 142.992C792.041 142.993 791.762 142.993 791.483 142.992Z" fill="#1793A3"/>
<path d="M791.911 132.997C822.378 132.997 847.076 108.34 847.076 77.9248C847.076 47.5095 822.378 22.853 791.911 22.853C761.445 22.853 736.747 47.5095 736.747 77.9248C736.747 108.34 761.445 132.997 791.911 132.997Z" fill="#1793A3"/>
</svg>
